#!OML:ASF I:\Actors\actors\Patient Classification 1\Patient 1\Session 1\Subject1.ASF
:FULLY-SPECIFIED
:DEGREES
315
root -0.361934 17.5112 7.62463 6.03744 -2.19623 -7.9841
lowerback 0.64551 3.14099 7.55587
upperback -8.86003 4.67799 -0.0579145
thorax -9.19171 1.71119 -4.64867
lowerneck -12.4004 -5.66285 -2.68285
upperneck 24.602 -10.1039 9.96402
head 10.6181 -3.78596 2.68024
rclavicle -3.47873e-014 -2.54444e-014
rhumerus 52.5071 26.6026 -11.5549
rradius 99.4828
rwrist -8.54035
rhand 34.0529 -29.113
rfingers 7.12502
rthumb 57.3091 -45.4386
lclavicle -3.47873e-014 -2.54444e-014
lhumerus -24.6617 -37.9974 97.8159
lradius 99.9768
lwrist 32.5145
lhand -15.4194 -4.97623
lfingers 7.12502
lthumb 10.7602 24.7282
rfemur 1.67437 24.8822 27.2214
rtibia 1.23363
rfoot -11.9786 -21.8947
rtoes 1.52045
lfemur 10.8173 -40.7149 -17.5314
ltibia -4.84564
lfoot -16.0188 47.8788
ltoes 5.053
316
root -0.362601 17.5113 7.6276 6.0452 -2.20716 -7.97315
lowerback 0.58909 3.12937 7.50948
upperback -8.82449 4.65105 -0.0735223
thorax -9.123 1.70512 -4.63245
lowerneck -12.4151 -5.66391 -2.63928
upperneck 24.532 -10.1251 10.0281
head 10.599 -3.78662 2.6916
rclavicle -1.13307e-014 -4.77083e-015
rhumerus 52.87 26.7269 -11.1665
rradius 99.7318
rwrist -10.6124
rhand 32.139 -32.8991
rfingers 7.12502
rthumb 55.619 -50.5803
lclavicle -1.13307e-014 -4.77083e-015
lhumerus -24.5628 -37.9467 97.7432
lradius 99.9339
lwrist 32.6902
lhand -15.4039 -4.86128
lfingers 7.12502
lthumb 10.7752 24.8424
rfemur 1.6604 24.8489 27.2034
rtibia 1.251
rfoot -11.9314 -21.8586
rtoes 1.37318
lfemur 10.8292 -40.791 -17.5743
ltibia -4.80996
lfoot -16.2721 47.9319
ltoes 5.3738
317
root -0.36245 17.5117 7.63097 6.04946 -2.21165 -7.96811
lowerback 0.54754 3.12769 7.47033
upperback -8.79733 4.63898 -0.10151
thorax -9.06921 1.70428 -4.63579
lowerneck -12.4419 -5.6462 -2.53485
upperneck 24.4939 -10.1314 10.0718
head 10.5886 -3.77533 2.68772
rclavicle 2.18663e-014 2.14687e-014
rhumerus 53.1741 26.8195 -11.0469
rradius 100.043
rwrist -13.0764
rhand 30.7756 -37.157
rfingers 7.12502
rthumb 54.4029 -55.7189
lclavicle 2.18663e-014 2.14687e-014
lhumerus -24.5109 -37.9698 97.7064
lradius 99.9122
lwrist 32.9209
lhand -15.5272 -4.82886
lfingers 7.12502
lthumb 10.6562 24.8809
rfemur 1.66776 24.8606 27.2008
rtibia 1.26226
rfoot -11.9862 -21.852
rtoes 1.53325
lfemur 10.8409 -40.7793 -17.5857
ltibia -4.80743
lfoot -16.3498 47.9119
ltoes 5.35089
318
root -0.362153 17.5128 7.63326 6.06201 -2.2104 -7.94134
lowerback 0.552953 3.14298 7.40728
upperback -8.79708 4.65395 -0.136181
thorax -9.0707 1.71493 -4.63915
lowerneck -12.4217 -5.67749 -2.54272
upperneck 24.4502 -10.1981 10.1769
head 10.5812 -3.79713 2.71736
rclavicle 3.75703e-014 1.98785e-014
rhumerus 53.3379 26.8537 -11.0983
rradius 100.471
rwrist -15.3359
rhand 30.1818 -41.5405
rfingers 7.12502
rthumb 53.8703 -60.4659
lclavicle 3.75703e-014 1.98785e-014
lhumerus -24.526 -38.0186 97.7451
lradius 99.8949
lwrist 32.9196
lhand -15.4714 -4.87024
lfingers 7.12502
lthumb 10.7101 24.8368
rfemur 1.66948 24.8823 27.1647
rtibia 1.24526
rfoot -12.0025 -21.8664
rtoes 1.54151
lfemur 10.7911 -40.6717 -17.5616
ltibia -4.82051
lfoot -16.1643 47.831
ltoes 5.05967
319
root -0.362462 17.5135 7.63488 6.07938 -2.19965 -7.92478
lowerback 0.581038 3.15173 7.35204
upperback -8.8079 4.66459 -0.153348
thorax -9.09971 1.72201 -4.63001
lowerneck -12.3904 -5.74496 -2.67573
upperneck 24.4254 -10.3067 10.3408
head 10.5922 -3.8429 2.78372
rclavicle -2.18663e-015 1.43125e-014
rhumerus 53.4223 26.8638 -11.1614
rradius 100.992
rwrist -17.0109
rhand 29.8974 -45.2408
rfingers 7.12502
rthumb 53.6147 -64.336
lclavicle -2.18663e-015 1.43125e-014
lhumerus -24.5495 -38.0245 97.8008
lradius 99.8965
lwrist 32.6974
lhand -15.2701 -4.91757
lfingers 7.12502
lthumb 10.9042 24.7793
rfemur 1.65881 24.8968 27.1422
rtibia 1.22619
rfoot -11.9594 -21.9007
rtoes 1.35866
lfemur 10.7427 -40.6294 -17.5329
ltibia -4.82903
lfoot -15.9981 47.7823
ltoes 4.90576
320
root -0.362847 17.5134 7.63747 6.08868 -2.18518 -7.92728
lowerback 0.582916 3.14668 7.31002
upperback -8.81122 4.65557 -0.156448
thorax -9.10778 1.72025 -4.60979
lowerneck -12.3804 -5.79434 -2.75864
upperneck 24.4059 -10.382 10.4323
head 10.5995 -3.876 2.81985
rclavicle 1.80894e-014 1.74931e-014
rhumerus 53.5253 26.8713 -11.1906
rradius 101.414
rwrist -17.5017
rhand 29.3941 -47.3624
rfingers 7.12502
rthumb 53.1614 -66.752
lclavicle 1.80894e-014 1.74931e-014
lhumerus -24.5682 -38.0249 97.8248
lradius 99.9493
lwrist 32.5487
lhand -15.1806 -4.95498
lfingers 7.12502
lthumb 10.9905 24.7373
rfemur 1.66681 24.9367 27.1567
rtibia 1.22084
rfoot -11.9532 -21.95
rtoes 1.33945
lfemur 10.7611 -40.681 -17.5423
ltibia -4.84424
lfoot -15.9872 47.8195
ltoes 4.91638
321
root -0.362621 17.5128 7.64101 6.11208 -2.17016 -7.93434
lowerback 0.562199 3.14182 7.26457
upperback -8.83013 4.64561 -0.156442
thorax -9.12052 1.71791 -4.58336
lowerneck -12.33 -5.82276 -2.72631
upperneck 24.3562 -10.4109 10.3849
head 10.5687 -3.89572 2.79386
rclavicle 1.72943e-014 2.54444e-014
rhumerus 53.6252 26.8942 -11.0695
rradius 101.754
rwrist -16.6481
rhand 28.4317 -47.6689
rfingers 7.12502
rthumb 52.2916 -67.5997
lclavicle 1.72943e-014 2.54444e-014
lhumerus -24.6362 -38.0531 97.8745
lradius 100.028
lwrist 32.5879
lhand -15.2448 -5.00086
lfingers 7.12502
lthumb 10.9287 24.6947
rfemur 1.67039 24.9615 27.1679
rtibia 1.20968
rfoot -11.9897 -21.9916
rtoes 1.3909
lfemur 10.7483 -40.6779 -17.5244
ltibia -4.85647
lfoot -15.948 47.8447
ltoes 4.737
